<svg width="15" height="16" viewBox="0 0 15 16" fill="none" xmlns="http://www.w3.org/2000/svg">
<path fill-rule="evenodd" clip-rule="evenodd" d="M10.0813 7.48279C10.2373 7.32759 10.2373 7.07319 10.0813 6.91799C9.92613 6.76199 9.67173 6.76199 9.51573 6.91799L6.19893 10.234L5.28213 9.31799C5.12693 9.16199 4.87253 9.16199 4.71733 9.31799C4.56133 9.47319 4.56133 9.72759 4.71733 9.88279L5.91733 11.0828C5.99493 11.1604 6.09733 11.1996 6.19893 11.1996C6.30133 11.1996 6.40373 11.162 6.48133 11.0828L10.0813 7.48279ZM7.39961 1.5996C7.29561 1.5996 7.19241 1.6428 7.11801 1.718C7.04201 1.7916 6.99961 1.8956 6.99961 1.9996C6.99961 2.1044 7.04361 2.2068 7.11801 2.282C7.19161 2.358 7.29481 2.3996 7.39961 2.3996C7.50441 2.3996 7.60761 2.3572 7.68201 2.282C7.75801 2.2076 7.79961 2.1044 7.79961 1.9996C7.79961 1.8956 7.75721 1.7924 7.68201 1.718C7.60841 1.642 7.50441 1.5996 7.39961 1.5996ZM5.1588 2.5676C5.4692 2.4052 5.7988 2.3996 5.7996 2.3996C6.0212 2.3996 6.1996 2.2212 6.1996 1.9996C6.1996 1.338 6.738 0.799596 7.3996 0.799596C8.062 0.799596 8.5996 1.338 8.5996 1.9996C8.5996 2.2212 8.7764 2.3996 8.998 2.3996C9.0012 2.3996 9.3308 2.4052 9.6412 2.5676C9.906 2.706 10.0748 2.9148 10.1524 3.1996H4.6476C4.7252 2.914 4.894 2.706 5.1588 2.5676ZM4.19961 3.9996H10.5988C10.8204 3.9996 10.9988 3.8212 10.9988 3.5996C10.9988 3.5932 10.9988 3.586 10.998 3.578C10.9924 2.7852 10.6308 2.1684 9.97721 1.842C9.75801 1.7324 9.54041 1.6716 9.36601 1.6388C9.19641 0.707596 8.37801 -0.000404358 7.39881 -0.000404358C6.42041 -0.000404358 5.60201 0.707596 5.43161 1.6388C5.25881 1.6716 5.04041 1.7324 4.82121 1.842C4.16281 2.1708 3.79961 2.7964 3.79961 3.5996C3.79961 3.8212 3.97881 3.9996 4.19961 3.9996ZM12.9996 2.3996H12.1996C11.9788 2.3996 11.7996 2.5788 11.7996 2.7996C11.7996 3.0212 11.9788 3.1996 12.1996 3.1996H12.9996C13.2212 3.1996 13.3996 3.3788 13.3996 3.5996V14.7996C13.3996 15.0212 13.2212 15.1996 12.9996 15.1996H1.79961C1.57881 15.1996 1.39961 15.0212 1.39961 14.7996V3.5996C1.39961 3.3788 1.57881 3.1996 1.79961 3.1996H2.59961C2.82121 3.1996 2.99961 3.0212 2.99961 2.7996C2.99961 2.5788 2.82121 2.3996 2.59961 2.3996H1.79961C1.13801 2.3996 0.599609 2.938 0.599609 3.5996V14.7996C0.599609 15.462 1.13801 15.9996 1.79961 15.9996H12.9996C13.662 15.9996 14.1996 15.462 14.1996 14.7996V3.5996C14.1996 2.938 13.662 2.3996 12.9996 2.3996Z" fill="#00B797"/>
</svg>
